<?xml version="1.0" encoding="UTF-8"?>
<svg version="1.1" xmlns="http://www.w3.org/2000/svg" width="512" height="512">
<path d="M0 0 C1.34828638 -0.00258644 2.69657199 -0.00560037 4.04485655 -0.0090034 C7.73980198 -0.01704416 11.43472796 -0.01886134 15.12968111 -0.01960087 C19.1189809 -0.02145657 23.10827071 -0.02900656 27.0975647 -0.03573608 C35.81688614 -0.04929981 44.53620298 -0.05534125 53.25553322 -0.05974674 C58.70461245 -0.06251286 64.15368991 -0.06675092 69.60276794 -0.07125092 C84.7026483 -0.08344173 99.80252725 -0.09374095 114.90241241 -0.09712601 C116.35119823 -0.09745536 116.35119823 -0.09745536 117.82925245 -0.09779136 C118.7973668 -0.09800964 119.76548115 -0.09822791 120.7629323 -0.09845281 C122.72456392 -0.09889627 124.68619553 -0.09934283 126.64782715 -0.09979248 C127.62085563 -0.10001391 128.5938841 -0.10023534 129.59639829 -0.10046348 C145.35123269 -0.1044087 161.10602076 -0.12185515 176.86083728 -0.145152 C193.05308085 -0.1689015 209.24530121 -0.18132952 225.43756247 -0.18249393 C234.52198403 -0.18340874 243.60634524 -0.18911201 252.69075012 -0.20731354 C260.42877894 -0.22276325 268.16672875 -0.22780643 275.90477008 -0.21957543 C279.8479054 -0.21568592 283.79088187 -0.21651469 287.73399734 -0.23063278 C291.35402234 -0.24347468 294.97377078 -0.24208537 298.59379596 -0.23004207 C300.50208862 -0.22719414 302.41038653 -0.23894245 304.31864023 -0.25146413 C328.82697766 -0.11320048 350.68110822 9.24997571 368.12731934 26.33966064 C381.64585702 40.46909435 391.90572599 61.22556279 391.94122791 81.0162096 C391.94568576 82.17415934 391.9501436 83.33210909 391.95473653 84.52514821 C391.95445999 86.41923084 391.95445999 86.41923084 391.95417786 88.35157776 C391.95747986 89.7140751 391.96120613 91.07657146 391.96531934 92.43906659 C391.97530961 96.17801406 391.97905134 99.91694549 391.98170865 103.65590441 C391.98562065 107.69093352 391.99519848 111.72595003 392.00392151 115.76097107 C392.02366263 125.5042789 392.03375003 135.24758773 392.0426493 144.99091056 C392.04703684 149.58466664 392.05240251 154.17842157 392.05763817 158.77217674 C392.07464956 174.05301454 392.08914164 189.33385164 392.09638691 204.61469746 C392.09829666 208.57811293 392.10021701 212.5415284 392.10217285 216.50494385 C392.10265659 217.48997567 392.10314033 218.47500748 392.10363873 219.48988875 C392.11193118 235.43097947 392.13725522 251.37199497 392.16975353 267.31305287 C392.20288177 283.69737621 392.22084095 300.08166139 392.22403115 316.46601838 C392.22619112 325.65785176 392.2348642 334.84957549 392.26049232 344.04137611 C392.28227838 351.87307666 392.29021116 359.70464093 392.28052554 367.53636835 C392.27600335 371.52637269 392.27774432 375.51609633 392.29728699 379.50606155 C392.47183896 417.2230151 392.47183896 417.2230151 383.99450684 432.57794189 C383.64831299 433.23423584 383.30211914 433.89052979 382.94543457 434.56671143 C371.83029771 455.21164905 354.32375987 471.5118785 331.66247559 478.49200439 C324.19148352 480.60483948 316.77483476 482.26202549 308.98812199 482.27186966 C307.84287243 482.2757108 306.69762287 482.27955195 305.51766878 482.28350949 C304.26914659 482.28264301 303.02062439 482.28177653 301.73426819 482.28088379 C300.38684487 482.28346941 299.03942231 482.28648311 297.69200081 482.28988719 C293.99479603 482.29793773 290.29761069 482.29974568 286.60039818 482.30048466 C282.61039914 482.30233867 278.62041011 482.30988789 274.63041687 482.31661987 C265.90690411 482.33019115 257.18339595 482.33622639 248.45987439 482.34063053 C243.00862293 482.34339569 237.55737324 482.34763362 232.10612297 482.3521347 C217.001994 482.36432712 201.89786643 482.37462563 186.79373264 482.3780098 C185.82734031 482.37822936 184.86094798 482.37844893 183.86527103 482.37867515 C182.89660858 482.37889343 181.92794613 482.3791117 180.92993027 482.3793366 C178.96716217 482.37978006 177.00439407 482.38022662 175.04162598 482.38067627 C174.068032 482.3808977 173.09443802 482.38111913 172.09134119 482.38134727 C156.32997669 482.38529184 140.56865852 482.40273559 124.8073119 482.42603579 C108.61057994 482.4497855 92.41387119 482.46221334 76.21712154 482.46337771 C67.12933163 482.46429258 58.04160205 482.46999713 48.95382881 482.48819733 C41.21211598 482.50364741 33.47048212 482.50869005 25.72875679 482.50045922 C21.78360318 482.49656966 17.83860835 482.49739864 13.89347458 482.51151657 C10.27155931 482.52435842 6.64992044 482.52296919 3.028005 482.51092586 C1.11867061 482.50807787 -0.79066902 482.51982636 -2.69996446 482.53234792 C-27.21041393 482.39414532 -49.06535551 473.03261157 -66.51330566 455.94122314 C-79.59973479 442.26342477 -90.29294755 421.58981657 -90.32721424 402.35369396 C-90.33167208 401.19015178 -90.33612993 400.0266096 -90.34072286 398.82780856 C-90.3405385 397.55370995 -90.34035413 396.27961134 -90.34016418 394.96690369 C-90.34346511 393.59630712 -90.34719116 392.22571151 -90.35130566 390.85511714 C-90.36130828 387.08917657 -90.36503967 383.32325194 -90.36769497 379.55729997 C-90.37160334 375.49500566 -90.38118148 371.4327239 -90.38990784 367.37043762 C-90.40965995 357.55849287 -90.41973807 347.74654711 -90.42863563 337.93458745 C-90.43302165 333.3098182 -90.43838774 328.6850501 -90.4436245 324.06028175 C-90.46063753 308.67825782 -90.47512967 293.29623459 -90.48237324 277.91420269 C-90.48428303 273.92345364 -90.48620337 269.93270459 -90.48815918 265.94195557 C-90.48864292 264.95011471 -90.48912666 263.95827385 -90.48962506 262.9363772 C-90.49791772 246.88461664 -90.52324139 230.83293079 -90.55573986 214.78120282 C-90.58886015 198.28730477 -90.60682659 181.79344462 -90.61001748 165.29951316 C-90.61217826 156.0445399 -90.62086322 146.78967549 -90.64647865 137.53473473 C-90.66825386 129.64918283 -90.67620278 121.76376623 -90.66651187 113.87818768 C-90.66198648 109.85996123 -90.66374964 105.84201352 -90.68327332 101.82382584 C-90.85098895 65.2928415 -90.85098895 65.2928415 -82.31799316 49.70294189 C-81.967771 49.03810791 -81.61754883 48.37327393 -81.25671387 47.68829346 C-80.26002873 45.82392474 -79.23614093 43.97912962 -78.19299316 42.14044189 C-77.70959473 41.28837158 -77.22619629 40.43630127 -76.72814941 39.55841064 C-64.7048649 20.21660513 -45.18411471 7.76967207 -23.44689941 1.86700439 C-15.57124853 0.1084557 -8.05417763 -0.00560272 0 0 Z " fill="#E4E7EE" transform="translate(105.1929931640625,14.85955810546875)"/>
<path d="M0 0 C0.80743652 0.10715332 1.61487305 0.21430664 2.44677734 0.32470703 C7.98931567 1.086709 13.49513817 2.00415721 19 3 C19.77939941 3.13631836 20.55879883 3.27263672 21.36181641 3.41308594 C44.71539052 7.56845787 72.48710999 15.88498406 87 36 C89.6413985 40.52966769 90.38086808 43.81426646 90.40405273 49.04003906 C90.41434761 50.05601418 90.41434761 50.05601418 90.42485046 51.09251404 C90.44305214 53.31710173 90.43928906 55.54097926 90.43359375 57.765625 C90.43816043 59.32493313 90.44346744 60.88423925 90.44947815 62.44354248 C90.4583975 65.70837589 90.45600164 68.97296458 90.44604492 72.23779297 C90.43458676 76.3981195 90.45472345 80.55759322 90.48396206 84.71780777 C90.50241785 87.93857087 90.50201257 91.15913344 90.49632454 94.37993622 C90.49617231 95.91236309 90.50213476 97.44480443 90.51461601 98.97718048 C90.59175236 110.00423715 89.85672851 119.5820766 82 128 C82.40992188 128.51949219 82.81984375 129.03898438 83.2421875 129.57421875 C83.78101563 130.27160156 84.31984375 130.96898437 84.875 131.6875 C85.40867187 132.37199219 85.94234375 133.05648437 86.4921875 133.76171875 C89.61794918 138.4017743 90.25527613 142.27543302 90.29052734 147.8347168 C90.29724457 148.50213394 90.30396179 149.16955109 90.31088257 149.85719299 C90.32981359 152.05461161 90.33378485 154.25172374 90.3359375 156.44921875 C90.34237106 157.98753481 90.34909983 159.52584966 90.35610962 161.06416321 C90.36807175 164.28784009 90.37179177 167.51140992 90.37060547 170.73510742 C90.37040285 174.84274089 90.39765006 178.94967807 90.43214989 183.05714703 C90.45452135 186.23585588 90.45843983 189.41440023 90.45738602 192.5931797 C90.4597287 194.10608114 90.46847622 195.61898805 90.48405075 197.13181114 C90.5872876 208.1998054 89.70674968 217.96198479 81.8046875 226.35546875 C44.95432834 259.93555794 -18.51835802 259.10752246 -65 257 C-71.58092731 256.53988551 -78.10347622 255.73344366 -84.625 254.75 C-85.31241272 254.64757996 -85.99982544 254.54515991 -86.70806885 254.43963623 C-110.97424256 250.71536841 -141.38584568 243.3681849 -159 225 C-161.31431796 221.7994452 -163.24845636 218.53651368 -165 215 C-165.33 214.34 -165.66 213.68 -166 213 C-166.11774226 210.77627523 -166.16986004 208.54898643 -166.19287109 206.32226562 C-166.20104858 205.63577942 -166.20922607 204.94929321 -166.21765137 204.24200439 C-166.24251722 201.96342841 -166.2590316 199.68491516 -166.2734375 197.40625 C-166.27876118 196.62622116 -166.28408485 195.84619232 -166.28956985 195.04252625 C-166.31631705 190.90726708 -166.33567976 186.77203814 -166.35009766 182.63671875 C-166.36339305 179.22628698 -166.3911605 175.81645978 -166.43212891 172.40625 C-166.48169572 168.28007994 -166.50624902 164.1544549 -166.51332474 160.02799988 C-166.52000178 158.4620316 -166.5351305 156.89607377 -166.55921555 155.33027649 C-166.72397894 143.9626146 -165.0508089 136.18000319 -158 127 C-158.763125 126.154375 -159.52625 125.30875 -160.3125 124.4375 C-164.97538368 119.27052079 -166.37285142 113.64268335 -166.41992188 106.84643555 C-166.42839142 106.16897278 -166.43686096 105.49151001 -166.44558716 104.79351807 C-166.46880898 102.57438904 -166.46998278 100.35595962 -166.46875 98.13671875 C-166.47586171 96.57883941 -166.48356217 95.02096267 -166.49182129 93.46308899 C-166.50523294 90.20424108 -166.50685043 86.94563528 -166.50097656 83.68676758 C-166.49509039 79.53417183 -166.52564126 75.38274927 -166.56609344 71.23038006 C-166.59209275 68.01389942 -166.59483676 64.79769647 -166.59120178 61.58112526 C-166.59288234 60.05147167 -166.60242113 58.52180375 -166.62034607 56.99225426 C-166.73528813 45.97047484 -165.41010369 37.7195868 -157.875 29.3125 C-153.36947003 25.17516388 -148.28647364 22.04023131 -143 19 C-141.50919922 18.13375 -141.50919922 18.13375 -139.98828125 17.25 C-99.58698625 -4.58326919 -44.63752607 -5.93781223 0 0 Z " fill="#5CBDFE" transform="translate(294,170)"/>
<path d="M0 0 C1.34828638 -0.00258644 2.69657199 -0.00560037 4.04485655 -0.0090034 C7.73980198 -0.01704416 11.43472796 -0.01886134 15.12968111 -0.01960087 C19.1189809 -0.02145657 23.10827071 -0.02900656 27.0975647 -0.03573608 C35.81688614 -0.04929981 44.53620298 -0.05534125 53.25553322 -0.05974674 C58.70461245 -0.06251286 64.15368991 -0.06675092 69.60276794 -0.07125092 C84.7026483 -0.08344173 99.80252725 -0.09374095 114.90241241 -0.09712601 C116.35119823 -0.09745536 116.35119823 -0.09745536 117.82925245 -0.09779136 C118.7973668 -0.09800964 119.76548115 -0.09822791 120.7629323 -0.09845281 C122.72456392 -0.09889627 124.68619553 -0.09934283 126.64782715 -0.09979248 C127.62085563 -0.10001391 128.5938841 -0.10023534 129.59639829 -0.10046348 C145.35123269 -0.1044087 161.10602076 -0.12185515 176.86083728 -0.145152 C193.05308085 -0.1689015 209.24530121 -0.18132952 225.43756247 -0.18249393 C234.52198403 -0.18340874 243.60634524 -0.18911201 252.69075012 -0.20731354 C260.42877894 -0.22276325 268.16672875 -0.22780643 275.90477008 -0.21957543 C279.8479054 -0.21568592 283.79088187 -0.21651469 287.73399734 -0.23063278 C291.35402234 -0.24347468 294.97377078 -0.24208537 298.59379596 -0.23004207 C300.50208862 -0.22719414 302.41038653 -0.23894245 304.31864023 -0.25146413 C328.82697766 -0.11320048 350.68110822 9.24997571 368.12731934 26.33966064 C391.2690243 50.52712779 391.80700684 77.40176211 391.80700684 110.14044189 C232.74700684 110.14044189 73.68700684 110.14044189 -90.19299316 110.14044189 C-90.19299316 64.09067424 -90.19299316 64.09067424 -82.31799316 49.70294189 C-81.967771 49.03810791 -81.61754883 48.37327393 -81.25671387 47.68829346 C-80.26002873 45.82392474 -79.23614093 43.97912962 -78.19299316 42.14044189 C-77.70959473 41.28837158 -77.22619629 40.43630127 -76.72814941 39.55841064 C-64.7048649 20.21660513 -45.18411471 7.76967207 -23.44689941 1.86700439 C-15.57124853 0.1084557 -8.05417763 -0.00560272 0 0 Z " fill="#33527D" transform="translate(105.1929931640625,14.85955810546875)"/>
<path d="M0 0 C0.80743652 0.10715332 1.61487305 0.21430664 2.44677734 0.32470703 C7.98931567 1.086709 13.49513817 2.00415721 19 3 C19.77939941 3.13631836 20.55879883 3.27263672 21.36181641 3.41308594 C44.98124062 7.61576138 72.09002365 15.96859133 87 36 C90.41620925 41.37161521 89.71921477 47.90976847 89 54 C85.1871108 65.25191384 74.49528327 72.04670639 64.375 77.1875 C7.9850788 104.51003799 -67.0629258 103.58683302 -125.37060547 83.55981445 C-140.16217518 78.27584339 -155.97441377 71.19789717 -163.921875 56.875 C-166.28922111 50.56207704 -166.47031384 43.68404478 -163.95703125 37.38671875 C-152.03550425 18.05180521 -126.90520778 10.18744055 -106 5 C-71.67716536 -3.10449806 -34.96287287 -4.65086201 0 0 Z " fill="#079CFE" transform="translate(294,170)"/>
<path d="M0 0 C0.33 0 0.66 0 1 0 C1.00257813 0.67804688 1.00515625 1.35609375 1.0078125 2.0546875 C1.3949376 11.37149834 4.64913007 18.03419838 11.3125 24.5625 C35.37468429 43.79418951 70.15223842 49.56968494 100 52 C101.22460938 52.11085938 102.44921875 52.22171875 103.7109375 52.3359375 C148.00144207 55.7714693 205.58149395 53.51469225 242.80859375 25.91796875 C249.59726055 20.08796426 253.18970734 14.74974785 255 6 C255.33 6 255.66 6 256 6 C256.09310726 14.17179803 256.16396947 22.34337058 256.20724869 30.51556969 C256.22803153 34.3111903 256.25617593 38.10644524 256.30175781 41.90185547 C256.34555183 45.57179937 256.36920687 49.24139388 256.37950897 52.91157913 C256.38684076 54.30449541 256.40115646 55.69739483 256.42292023 57.09016037 C256.58485974 67.89330602 255.46456423 77.21923152 247.8046875 85.35546875 C210.95432834 118.93555794 147.48164198 118.10752246 101 116 C94.41907269 115.53988551 87.89652378 114.73344366 81.375 113.75 C80.34388092 113.59636993 80.34388092 113.59636993 79.29193115 113.43963623 C55.02575744 109.71536841 24.61415432 102.3681849 7 84 C4.68568204 80.7994452 2.75154364 77.53651368 1 74 C0.67 73.34 0.34 72.68 0 72 C-0.09208458 69.72273826 -0.11749598 67.44269353 -0.11352539 65.16357422 C-0.11374443 64.10975052 -0.11374443 64.10975052 -0.1139679 63.03463745 C-0.11327014 60.70795627 -0.10548419 58.38135473 -0.09765625 56.0546875 C-0.09579158 54.44328861 -0.09436791 52.83188916 -0.09336853 51.2204895 C-0.0895472 46.97571248 -0.07972018 42.73096958 -0.06866455 38.48620605 C-0.05844218 34.15617332 -0.05386914 29.82613507 -0.04882812 25.49609375 C-0.03809758 16.99738016 -0.02102575 8.49869432 0 0 Z " fill="#5CBEFE" transform="translate(128,311)"/>
<path d="M0 0 C0.33 0 0.66 0 1 0 C1.75213288 32.69753039 -1.26116576 58.55083741 -24.5078125 83.55859375 C-39.44035977 98.18687281 -60.70737235 108.10473804 -81.81888485 108.13142776 C-82.96413441 108.13526891 -84.10938396 108.13911005 -85.28933805 108.1430676 C-86.53786025 108.14220112 -87.78638245 108.14133463 -89.07273865 108.14044189 C-90.42016197 108.14302751 -91.76758453 108.14604122 -93.11500603 108.1494453 C-96.81221081 108.15749583 -100.50939615 108.15930378 -104.20660865 108.16004276 C-108.19660769 108.16189678 -112.18659673 108.16944599 -116.17658997 108.17617798 C-124.90010273 108.18974925 -133.62361088 108.19578449 -142.34713244 108.20018864 C-147.7983839 108.2029538 -153.2496336 108.20719172 -158.70088387 108.21169281 C-173.80501284 108.22388523 -188.9091404 108.23418373 -204.01327419 108.2375679 C-204.97966653 108.23778747 -205.94605886 108.23800703 -206.94173581 108.23823325 C-207.91039826 108.23845153 -208.87906071 108.23866981 -209.87707657 108.2388947 C-211.83984466 108.23933816 -213.80261276 108.23978472 -215.76538086 108.24023438 C-216.73897484 108.2404558 -217.71256882 108.24067723 -218.71566565 108.24090537 C-234.47703015 108.24484995 -250.23834832 108.2622937 -265.99969494 108.2855939 C-282.1964269 108.30934361 -298.39313565 108.32177144 -314.58988529 108.32293582 C-323.67767521 108.32385069 -332.76540479 108.32955523 -341.85317802 108.34775543 C-349.59489085 108.36320551 -357.33652472 108.36824816 -365.07825004 108.36001733 C-369.02340366 108.35612777 -372.96839849 108.35695675 -376.91353226 108.37107468 C-380.53544753 108.38391653 -384.15708639 108.38252729 -387.77900184 108.37048396 C-389.68833622 108.36763598 -391.59767585 108.37938446 -393.5069713 108.39190602 C-418.01742077 108.25370342 -439.87236235 98.89216968 -457.3203125 81.80078125 C-470.88278253 67.62542992 -481.18208947 46.79102634 -481.09765625 26.94921875 C-481.0962413 26.29041214 -481.09482635 25.63160553 -481.09336853 24.95283508 C-481.087805 22.86434238 -481.07525947 20.77595989 -481.0625 18.6875 C-481.05748028 17.26497551 -481.0529182 15.84244934 -481.04882812 14.41992188 C-481.03784757 10.94657923 -481.02060835 7.47330039 -481 4 C-480.67 4 -480.34 4 -480 4 C-479.79246094 5.11375 -479.58492188 6.2275 -479.37109375 7.375 C-474.58617919 31.64785887 -463.48676096 52.14444221 -442.625 66.25 C-425.98848194 77.10249565 -408.74201021 81.15441872 -389.04824829 81.14044189 C-387.73935808 81.14341302 -386.43046786 81.14638414 -385.08191431 81.1494453 C-381.45923946 81.15748481 -377.83658447 81.15930317 -374.21390176 81.16004276 C-370.30227395 81.16189872 -366.39065632 81.16944891 -362.47903442 81.17617798 C-353.92899481 81.18974157 -345.37895989 81.19578334 -336.8289113 81.20018864 C-331.48434252 81.20295519 -326.13977554 81.20719337 -320.79520798 81.21169281 C-305.98184892 81.2238844 -291.1684913 81.23418296 -276.35512733 81.2375679 C-275.40757891 81.23778747 -274.46003049 81.23800703 -273.48376849 81.23823325 C-272.05913787 81.23856067 -272.05913787 81.23856067 -270.60572684 81.2388947 C-268.6813244 81.23933816 -266.75692197 81.23978472 -264.83251953 81.24023438 C-263.87795936 81.2404558 -262.92339919 81.24067723 -261.93991296 81.24090537 C-246.49035599 81.24484906 -231.04084631 81.26229045 -215.5913076 81.2855939 C-199.70867773 81.30935602 -183.82607154 81.32177201 -167.94342363 81.32293582 C-159.03443664 81.32385001 -150.12551123 81.32953731 -141.21654129 81.34775543 C-133.62642434 81.36322237 -126.03638799 81.36823836 -118.44625826 81.36001733 C-114.57983405 81.35613362 -110.71357182 81.3569275 -106.84716797 81.37107468 C-75.08378067 81.48036707 -47.29883633 78.04937214 -23.75 54.94140625 C-9.4183666 40.09579018 -1.457125 20.39975004 0 0 Z " fill="#CDD4DF" transform="translate(496,389)"/>
<path d="M0 0 C3.07406304 1.42253481 5.61309322 3.1501239 8.3125 5.1875 C38.88114856 26.6971184 81.68796341 30.43003479 117.9375 30.3125 C118.71266968 30.31004272 119.48783936 30.30758545 120.28649902 30.30505371 C135.67678988 30.21744605 151.11490648 29.83671588 166.3125 27.25 C167.36590576 27.0737207 168.41931152 26.89744141 169.50463867 26.71582031 C193.25360299 22.62098647 219.83798181 16.95121697 238 0 C242.86915825 2.0660181 244.82410355 5.30038723 247 10 C248.95148266 16.58773238 248.01807627 22.8888642 245 29 C230.05516529 50.42306778 198.88414986 58.14367536 174.53466797 62.56640625 C121.98515473 71.55580478 54.65119177 72.10724627 8 42 C1.57251544 37.27192889 -4.61680604 31.83726968 -7 24 C-8.06956519 16.86127421 -8.12591348 10.84151028 -4.0625 4.6875 C-2.76900678 3.03317416 -1.48294854 1.48294854 0 0 Z " fill="#079CFE" transform="translate(136,298)"/>
<path d="M0 0 C4.45346272 2.51220974 7.0228475 5.7221204 8.8125 10.5 C9.83809668 15.79611401 9.3961185 20.14539286 6.75 24.875 C3.52486892 29.33778642 0.08806779 31.88029799 -5.35546875 32.91015625 C-10.51638148 33.25658585 -14.24803777 32.10019671 -18.45703125 29.109375 C-22.63925267 25.21981467 -24.37067542 20.64123728 -24.75 15 C-24.48652619 9.91495541 -22.55184398 6.26364743 -19.1875 2.5 C-13.39102219 -2.49453792 -6.81604023 -2.86991168 0 0 Z " fill="#AF44EE" transform="translate(198.1875,54.5)"/>
<path d="M0 0 C4.15422393 2.79958569 7.61888159 6.42526317 9.875 10.9375 C10.41249296 15.83661617 10.44174874 19.7822045 8.25 24.25 C0.98304598 32.47313218 0.98304598 32.47313218 -4.125 32.9375 C-5.176875 33.081875 -6.22875 33.22625 -7.3125 33.375 C-12.68324933 32.7586845 -16.07996169 30.43351115 -20.125 26.9375 C-23.50205435 22.53709585 -23.70390014 18.02480463 -23.53515625 12.625 C-22.77187137 7.62366671 -20.35220134 4.75385838 -16.515625 1.625 C-11.12894983 -1.93317076 -6.12802904 -2.08352987 0 0 Z " fill="#4BC36E" transform="translate(93.125,54.0625)"/>
<path d="M0 0 C4.15422393 2.79958569 7.61888159 6.42526317 9.875 10.9375 C10.41249296 15.83661617 10.44174874 19.7822045 8.25 24.25 C3.81756242 29.26565305 0.12568403 32.54517607 -6.75 33.375 C-12.24301839 33.29377237 -16.17451307 30.57483858 -20.125 26.9375 C-23.11994441 22.03668187 -23.89007398 17.54804251 -23.125 11.9375 C-21.56461947 5.90402862 -18.69518728 3.17431013 -13.53125 0.0390625 C-8.72544841 -2.16099602 -5.00856319 -1.70291149 0 0 Z " fill="#FAA102" transform="translate(145.125,54.0625)"/>
<path d="M0 0 C1.03116943 -0.00953201 2.06233887 -0.01906403 3.12475586 -0.02888489 C4.79356812 -0.02751778 4.79356812 -0.02751778 6.49609375 -0.02612305 C7.63892822 -0.03040817 8.7817627 -0.0346933 9.95922852 -0.03910828 C12.37678362 -0.04485424 14.79435602 -0.04534989 17.21191406 -0.04101562 C20.91891824 -0.03785431 24.62512572 -0.06131725 28.33203125 -0.08666992 C30.67838441 -0.08894267 33.02473972 -0.08964653 35.37109375 -0.08862305 C36.48363525 -0.09783279 37.59617676 -0.10704254 38.74243164 -0.11653137 C40.28918579 -0.10718819 40.28918579 -0.10718819 41.8671875 -0.09765625 C43.22928345 -0.09860039 43.22928345 -0.09860039 44.61889648 -0.0995636 C46.93359375 0.2746582 46.93359375 0.2746582 48.72290039 1.57917786 C50.76837426 4.44370233 50.35629096 6.89308051 49.93359375 10.2746582 C47.06267209 13.10452989 44.93471991 13.6559489 40.96899414 13.69458008 C39.49209862 13.71844788 39.49209862 13.71844788 37.98536682 13.74279785 C36.92800827 13.74299927 35.87064972 13.74320068 34.78125 13.7434082 C33.14282387 13.75482849 33.14282387 13.75482849 31.47129822 13.76647949 C29.16228521 13.77728049 26.85322334 13.78013361 24.54418945 13.77563477 C21.01235443 13.77466268 17.48269309 13.81628244 13.95117188 13.8605957 C11.70703578 13.86580286 9.46289213 13.86849089 7.21875 13.8684082 C6.16341568 13.88480347 5.10808136 13.90119873 4.02076721 13.91809082 C-3.27851919 13.84932546 -3.27851919 13.84932546 -7.27172852 10.93676758 C-9.06640625 8.2746582 -9.06640625 8.2746582 -9.06640625 5.0871582 C-7.36354628 0.29786454 -4.62063346 0.02344446 0 0 Z " fill="#CDD4DF" transform="translate(86.06640625,150.725341796875)"/>
<path d="M0 0 C1.00784546 -0.00938095 2.01569092 -0.0187619 3.05407715 -0.02842712 C4.13644653 -0.01719315 5.21881592 -0.00595917 6.33398438 0.00561523 C7.45083618 0.00416 8.56768799 0.00270477 9.71838379 0.00120544 C12.07872121 0.00286478 14.43906941 0.01442978 16.79931641 0.03515625 C20.41420404 0.06410065 24.02762458 0.05576699 27.64257812 0.04272461 C29.93555401 0.04896227 32.22852526 0.05735342 34.52148438 0.06811523 C36.14503845 0.06371178 36.14503845 0.06371178 37.8013916 0.05921936 C39.31315979 0.07824562 39.31315979 0.07824562 40.85546875 0.09765625 C42.18306213 0.10576073 42.18306213 0.10576073 43.53747559 0.11402893 C46.45530112 0.58727591 47.83295244 1.43226716 49.92773438 3.50170898 C50.42773438 7.00170898 50.42773438 7.00170898 49.92773438 10.50170898 C47.01713257 13.3804515 44.86320146 13.87907884 40.83959961 13.88989258 C39.32298988 13.9040773 39.32298988 13.9040773 37.77574158 13.91854858 C36.69023514 13.91247589 35.6047287 13.9064032 34.48632812 13.90014648 C32.8074929 13.90445175 32.8074929 13.90445175 31.09474182 13.90884399 C28.73022963 13.91088449 26.36570056 13.9053557 24.0012207 13.89282227 C20.37543155 13.87675417 16.75075466 13.89268005 13.125 13.91186523 C10.82877357 13.9098831 8.53254784 13.90604003 6.23632812 13.90014648 C5.14879745 13.90621918 4.06126678 13.91229187 2.94078064 13.91854858 C1.42889915 13.90436386 1.42889915 13.90436386 -0.11352539 13.88989258 C-1.00080826 13.8875058 -1.88809113 13.88511902 -2.80226135 13.88265991 C-5.55581287 13.42056034 -6.41061752 12.70983511 -8.07226562 10.50170898 C-9.00976562 7.56420898 -9.00976562 7.56420898 -9.07226562 4.50170898 C-6.30055402 0.93603953 -4.47349764 0.00083989 0 0 Z " fill="#CDD4DF" transform="translate(49.072265625,180.498291015625)"/>
<path d="M0 0 C4.38773175 2.19386588 7.09334197 4.44520582 9 9 C9.54700764 13.29791716 9.31502266 15.41495791 7.25 19.25 C4.66789127 22.40591067 2.7219338 24.65902301 -1.3671875 25.46875 C-5.72839788 25.5230953 -8.99129387 25.5500512 -12.5 22.75 C-15.80640712 19.11295217 -16.83222901 17.50993888 -17.375 12.625 C-16.8476637 7.52741573 -14.66444332 4.84938147 -11.3125 1.125 C-7.59344385 -0.68427056 -4.04760663 -0.63243854 0 0 Z " fill="#FCBE04" transform="translate(322,376)"/>
<path d="M0 0 C3.23300086 1.47593517 5.72160787 3.26592945 8 6 C9.20643566 9.61930698 9.32268559 12.19231005 9 16 C6.7481855 20.33682792 4.57681459 23.16927416 0 25 C-4.51646202 25.66636325 -7.85567895 25.64679016 -11.875 23.375 C-15.05177841 19.82448295 -16.74673986 16.73664094 -17.4375 12 C-16.76022306 7.35581527 -14.38893417 4.54326019 -11.3125 1.125 C-7.62023551 -0.67123678 -4.02391415 -0.53988115 0 0 Z " fill="#B146F1" transform="translate(360,265)"/>
<path d="M0 0 C3.08464423 1.48933094 5.08578915 3.15486594 7 6 C8.52369862 10.42898926 8.35905196 13.8806027 6.9375 18.3125 C4.27247877 22.00914234 1.64476026 24.48266167 -2.95703125 25.3828125 C-8.03261509 25.67395498 -11.12197132 24.42709511 -15 21 C-18.04086746 16.78202255 -18.5614877 13.21541295 -17.75390625 8.19140625 C-16.61747763 4.88810856 -14.95532126 3.09199115 -12.16015625 1.04296875 C-8.07539119 -0.9292415 -4.3802126 -1.030226 0 0 Z " fill="#FBBE05" transform="translate(323,278)"/>
<path d="M0 0 C3.42484369 2.28322912 4.97163392 4.19326784 6.8125 7.875 C7.28267401 11.70355982 7.1844607 14.03319421 5.625 17.5625 C2.93159023 20.99891936 0.9569954 23.48769983 -3.5234375 24.296875 C-7.99816156 24.53875198 -11.1964863 24.39259448 -14.75 21.5 C-18.69583552 17.25063868 -18.52434812 14.2199232 -18.47265625 8.578125 C-18.08783774 4.93025636 -16.94765463 3.25179982 -14.1875 0.875 C-9.81782508 -2.28924735 -4.88787004 -1.7251306 0 0 Z " fill="#B146F1" transform="translate(362.1875,364.125)"/>
<path d="M0 0 C0.81984375 -0.01998047 1.6396875 -0.03996094 2.484375 -0.06054688 C8.43299555 -0.05568689 8.43299555 -0.05568689 11.0703125 2.23828125 C12.48535437 5.5856282 11.89540803 7.98378332 11 11.4375 C7.29182221 13.90961853 4.3574099 13.80480992 0.0625 13.8125 C-0.65357422 13.83699219 -1.36964844 13.86148438 -2.10742188 13.88671875 C-5.62163356 13.90626024 -7.61790621 13.72015298 -10.4765625 11.60546875 C-12.52804798 8.68604711 -12.52026763 6.93072552 -12 3.4375 C-8.76517738 -0.78332144 -4.9214898 -0.04256005 0 0 Z " fill="#CDD4DF" transform="translate(52,150.5625)"/>
<path d="M0 0 C3.0625 1.5 3.0625 1.5 5 3 C3.72873557 6.8137933 1.99972747 7.88032657 -1.125 10.375 C-2.60806641 11.56029297 -2.60806641 11.56029297 -4.12109375 12.76953125 C-7.3566913 15.27635106 -10.62972683 17.67825626 -14 20 C-16.69389067 16.18365489 -17.66719976 13.67039834 -17 9 C-12.73102862 1.22437355 -8.73836966 -1.21279864 0 0 Z " fill="#BE76FE" transform="translate(360,265)"/>
<path d="M0 0 C3.0625 1.375 3.0625 1.375 5 3 C5 3.66 5 4.32 5 5 C3.36567245 6.47769218 1.66523632 7.88269319 -0.0625 9.25 C-3.45920632 11.9594861 -6.81313648 14.67800145 -10.0625 17.5625 C-13 20 -13 20 -15 20 C-17.34728069 16.33237392 -17.4430704 13.28301385 -17 9 C-12.78969738 1.18086657 -8.7057095 -1.17728456 0 0 Z " fill="#FBD711" transform="translate(322,376)"/>
<path d="M0 0 C0.845625 0.495 1.69125 0.99 2.5625 1.5 C0.97979204 5.80905007 -2.32433078 8.2810482 -5.75 11.125 C-6.60368164 11.85976563 -6.60368164 11.85976563 -7.47460938 12.609375 C-10.6457955 15.27448205 -13.42879463 17.22142606 -17.4375 18.5 C-19.40745556 14.56008887 -18.89057739 9.79492536 -18.4375 5.5 C-14.24426159 -1.83816722 -7.69995092 -3.35997858 0 0 Z " fill="#BE75FE" transform="translate(362.4375,364.5)"/>
<path d="M0 0 C2.30859375 2.03125 2.30859375 2.03125 4 4 C1.28510369 6.48784982 -1.43453047 8.97005121 -4.16796875 11.4375 C-5.76556633 12.88305036 -7.35686362 14.33587164 -8.92578125 15.8125 C-10.4375 17.1875 -10.4375 17.1875 -13 19 C-15.16015625 18.61328125 -15.16015625 18.61328125 -17 18 C-18.43210803 10.08027007 -18.43210803 10.08027007 -16.875 6.1875 C-11.9800024 0.47666947 -7.57748251 -1.67567093 0 0 Z " fill="#FCD710" transform="translate(323,278)"/>
</svg>
